# xmcd CD database file
#
# Track frame offsets:
#	150
#	15834
#	35161
#	55389
#	73771
#	91717
#	107329
#	120981
#	137064
#	152746
#	169080
#	184511
#	201012
#	215717
#	231578
#
# Disc length: 3288 seconds
#
# Revision: 1
# Processed by: cddbd v1.5.2PL0 Copyright (c) Steve Scherf et al.
# Submitted via: CDex 1.51
#
DISCID=c80cd60f
DTITLE=Various Artist - ZM-PCP-24
DYEAR=1900
DGENRE=Blues
TTITLE0=Meghan Trainor - All About That Bass
TTITLE1=Nico And Vinz - Am I Wrong
TTITLE2=Nicki Minaj - Anaconda
TTITLE3=Ariana Grande Ft Big Sean - Best Mistake
TTITLE4=Clean Bandit Ft Stylo G - Come Over
TTITLE5=Aloe Blacc - Hello World (the world is ours)
TTITLE6=Bars And Melody - Hopeful (video version)
TTITLE7=David Guetta Ft Sam Martin - Lovers On The Sun
TTITLE8=Bastille - Oblivion
TTITLE9=Vamps The - Oh Cecillia (breaking my heart)
TTITLE10=Lilly Wood And The Prick Ft Robin Schulz - Prayer In C
TTITLE11=Katy Perry - This Is How We Do
TTITLE12=Paloma Faith - Trouble With My Baby
TTITLE13=GRL - Ugly Heart
TTITLE14=Secondcity Ft Ali Love - What Can I Do
EXTD=
EXTT0=
EXTT1=
EXTT2=
EXTT3=
EXTT4=
EXTT5=
EXTT6=
EXTT7=
EXTT8=
EXTT9=
EXTT10=
EXTT11=
EXTT12=
EXTT13=
EXTT14=
PLAYORDER=
